<?xml version="1.0" standalone="no"?>
<!DOCTYPE svg PUBLIC "-//W3C//DTD SVG 20010904//EN"
 "http://www.w3.org/TR/2001/REC-SVG-20010904/DTD/svg10.dtd">
<svg version="1.0" xmlns="http://www.w3.org/2000/svg"
 width="300.000000pt" height="185.000000pt" viewBox="0 0 300.000000 185.000000"
 preserveAspectRatio="xMidYMid meet">
<metadata>
Created by potrace 1.10, written by Peter Selinger 2001-2011
</metadata>
<g transform="translate(0.000000,185.000000) scale(0.100000,-0.100000)"
fill="#000000" stroke="none">
<path d="M2363 1364 c-4 -11 15 -36 63 -81 l69 -64 -45 5 c-25 3 -102 11 -172
18 -213 19 -473 -13 -689 -86 l-99 -34 -77 33 c-194 83 -446 87 -637 9 -194
-79 -349 -255 -401 -454 -24 -90 -18 -286 9 -306 39 -28 46 -9 39 109 -7 129
7 201 58 306 40 81 147 194 230 244 184 109 439 127 652 47 l57 -21 -57 -43
c-68 -50 -104 -95 -141 -174 -51 -110 -28 -246 55 -324 93 -88 251 -74 346 32
56 61 71 102 71 195 1 69 -4 89 -31 147 -17 37 -50 87 -73 112 l-41 45 78 24
c212 67 442 94 655 77 73 -6 137 -15 141 -19 4 -4 -17 -11 -47 -15 -77 -9
-106 -21 -106 -46 0 -28 18 -33 76 -19 27 6 98 13 159 15 68 3 112 9 116 16
18 29 -74 158 -164 229 -52 42 -84 49 -94 23z m-747 -486 c55 -163 -24 -311
-174 -326 -144 -13 -231 156 -159 308 28 57 77 110 141 152 l61 39 56 -59 c39
-41 63 -77 75 -114z"/>
</g>
</svg>
